<svg width="45" height="45" viewBox="0 0 45 45" fill="none" xmlns="http://www.w3.org/2000/svg">
<g filter="url(#filter0_dii_17_427)">
<path d="M8.77288 23.0889L8.20278 23.6596L8.19877 23.663L8.19542 23.6663C6.73563 25.0969 5.8314 27.0884 5.8314 29.2923C5.83153 33.6421 9.35795 37.1685 13.7077 37.1686C15.8507 37.1686 17.7923 36.3135 19.2133 34.9244L19.964 34.1743L21.2588 35.4697L20.502 36.2265C18.752 37.9412 16.3524 39 13.7077 39C8.34634 38.9999 4.00013 34.6537 4 29.2923C4 26.5761 5.11702 24.1184 6.91404 22.3575L7.47812 21.7934L8.77288 23.0889Z" fill="url(#paint0_linear_17_427)"/>
<path fill-rule="evenodd" clip-rule="evenodd" d="M13.3417 2.18334C17.2291 2.18342 18.7624 3.95885 19.9386 4.98698L38.0679 23.117C39.764 24.7792 40.8173 27.0959 40.8173 29.6583C40.8172 34.7162 36.7162 38.8172 31.6583 38.8173C29.1632 38.8173 26.9012 37.8187 25.2494 36.2004L6.98698 17.9386C6.40589 17.3231 4.1834 15.3787 4.18334 11.3417C4.18339 6.28369 8.28368 2.18339 13.3417 2.18334ZM23.056 31.0822L24.3515 32.3777L34.3248 22.4037L33.03 21.1089L23.056 31.0822ZM23.4026 23.9928C22.9019 23.4923 22.09 23.4922 21.5893 23.9928C21.0887 24.4935 21.0888 25.3054 21.5893 25.8062C22.0901 26.3067 22.902 26.3068 23.4026 25.8062C23.9033 25.3055 23.9032 24.4936 23.4026 23.9928ZM18.9991 19.5893C18.4984 19.0887 17.6865 19.0887 17.1858 19.5893C16.6852 20.09 16.6852 20.9019 17.1858 21.4027C17.6865 21.9032 18.4985 21.9033 18.9991 21.4027C19.4997 20.902 19.4996 20.09 18.9991 19.5893ZM27.8068 19.5893C27.3062 19.0887 26.4942 19.0888 25.9935 19.5893C25.4928 20.09 25.4928 20.9019 25.9935 21.4027C26.4943 21.9031 27.3062 21.9033 27.8068 21.4027C28.3073 20.902 28.3072 20.09 27.8068 19.5893ZM10.623 18.6492L11.9178 19.944L21.944 9.91777L20.6492 8.62301L10.623 18.6492ZM23.4026 15.1858C22.9019 14.6852 22.09 14.6851 21.5893 15.1858C21.0888 15.6865 21.0887 16.4985 21.5893 16.9991C22.09 17.4996 22.902 17.4996 23.4026 16.9991C23.9033 16.4985 23.9032 15.6865 23.4026 15.1858Z" fill="url(#paint1_linear_17_427)"/>
<path d="M31.2923 2C36.6537 2.00013 40.9999 6.34634 41 11.7077C41 15.9792 38.6122 18.0828 38.0585 18.6693L38.0498 18.6786L37.4697 19.2588L36.1743 17.964L36.745 17.3932C37.3283 16.7826 39.1686 15.1508 39.1686 11.7077C39.1685 7.35795 35.6421 3.83153 31.2923 3.8314C29.578 3.8314 28.4322 4.21976 27.5987 4.68922C26.7417 5.17203 26.2009 5.73549 25.5847 6.27639L25.036 6.82574L23.7412 5.53031L24.3334 4.93813L24.3568 4.91806C24.8601 4.47811 25.617 3.7035 26.7001 3.09335C27.8176 2.4639 29.2746 2 31.2923 2Z" fill="url(#paint2_linear_17_427)"/>
</g>
<defs>
<filter id="filter0_dii_17_427" x="0" y="0" width="45" height="45" filterUnits="userSpaceOnUse" color-interpolation-filters="sRGB">
<feFlood flood-opacity="0" result="BackgroundImageFix"/>
<feColorMatrix in="SourceAlpha" type="matrix" values="0 0 0 0 0 0 0 0 0 0 0 0 0 0 0 0 0 0 127 0" result="hardAlpha"/>
<feOffset dy="2"/>
<feGaussianBlur stdDeviation="2"/>
<feComposite in2="hardAlpha" operator="out"/>
<feColorMatrix type="matrix" values="0 0 0 0 0.0980392 0 0 0 0 0.105229 0 0 0 0 0.529412 0 0 0 0.53 0"/>
<feBlend mode="multiply" in2="BackgroundImageFix" result="effect1_dropShadow_17_427"/>
<feBlend mode="normal" in="SourceGraphic" in2="effect1_dropShadow_17_427" result="shape"/>
<feColorMatrix in="SourceAlpha" type="matrix" values="0 0 0 0 0 0 0 0 0 0 0 0 0 0 0 0 0 0 127 0" result="hardAlpha"/>
<feOffset dx="1" dy="1"/>
<feGaussianBlur stdDeviation="2"/>
<feComposite in2="hardAlpha" operator="arithmetic" k2="-1" k3="1"/>
<feColorMatrix type="matrix" values="0 0 0 0 0.854167 0 0 0 0 1 0 0 0 0 0.831731 0 0 0 0.25 0"/>
<feBlend mode="plus-lighter" in2="shape" result="effect2_innerShadow_17_427"/>
<feColorMatrix in="SourceAlpha" type="matrix" values="0 0 0 0 0 0 0 0 0 0 0 0 0 0 0 0 0 0 127 0" result="hardAlpha"/>
<feOffset dx="-1" dy="-2"/>
<feGaussianBlur stdDeviation="1.55"/>
<feComposite in2="hardAlpha" operator="arithmetic" k2="-1" k3="1"/>
<feColorMatrix type="matrix" values="0 0 0 0 0.0980392 0 0 0 0 0.105229 0 0 0 0 0.529412 0 0 0 0.18 0"/>
<feBlend mode="multiply" in2="effect2_innerShadow_17_427" result="effect3_innerShadow_17_427"/>
</filter>
<linearGradient id="paint0_linear_17_427" x1="87.5926" y1="-17.1852" x2="87.5926" y2="58.8704" gradientUnits="userSpaceOnUse">
<stop stop-color="#6EE3DB"/>
<stop offset="0.485577" stop-color="#96FFD5"/>
<stop offset="1" stop-color="#AFF9B3"/>
</linearGradient>
<linearGradient id="paint1_linear_17_427" x1="87.5926" y1="-17.1852" x2="87.5926" y2="58.8704" gradientUnits="userSpaceOnUse">
<stop stop-color="#6EE3DB"/>
<stop offset="0.485577" stop-color="#96FFD5"/>
<stop offset="1" stop-color="#AFF9B3"/>
</linearGradient>
<linearGradient id="paint2_linear_17_427" x1="87.5926" y1="-17.1852" x2="87.5926" y2="58.8704" gradientUnits="userSpaceOnUse">
<stop stop-color="#6EE3DB"/>
<stop offset="0.485577" stop-color="#96FFD5"/>
<stop offset="1" stop-color="#AFF9B3"/>
</linearGradient>
</defs>
</svg>
