<svg width="105" height="35" viewBox="0 0 105 35" fill="none" xmlns="http://www.w3.org/2000/svg">
<g filter="url(#filter0_dii_17_426)">
<path d="M5.57779 28.2173C4.52593 28.2173 4 27.7017 4 26.6706V4.32987C4 3.29876 4.52593 2.7832 5.57779 2.7832H15.325C17.5339 2.7832 19.4273 3.43624 20.9349 4.70794C21.4959 5.2235 22.1621 5.8078 22.653 6.70142C23.1438 7.59505 23.4944 8.76365 23.4944 10.3103V10.3447C23.4944 11.4102 23.1438 12.4069 22.688 13.1974C22.2322 14.0223 21.6011 14.6066 21.0752 14.7785C21.531 14.8816 22.4426 15.3284 23.2841 16.2564C24.1256 17.1844 24.8268 18.4905 24.967 20.1746C25.0021 21.137 24.8969 22.3399 24.4061 23.5429C23.9152 24.7459 23.0737 25.9145 21.9167 26.7737C20.7596 27.633 19.1818 28.2173 17.1833 28.2173H5.57779ZM10.3112 8.55742V12.8194H14.9744C15.5003 12.8194 16.0964 12.6475 16.5522 12.3038C16.9729 11.9601 17.3235 11.4789 17.3235 10.7915C17.3235 9.65728 16.7275 8.55742 15.325 8.55742H10.3112ZM10.3112 18.078V22.3399H16.0613C17.3235 22.3399 18.3403 21.6869 18.3403 20.209C18.3403 18.7311 17.3937 18.078 15.8509 18.078H10.3112Z" fill="url(#paint0_linear_17_426)"/>
<path d="M39.9807 2.7832C40.8572 2.7832 41.4884 3.19565 41.8039 4.02053L49.798 26.43C50.1837 27.5299 49.7279 28.2173 48.5007 28.2173H44.7491C43.8375 28.2173 43.2415 27.8048 42.961 26.9456L41.874 23.8179H34.1604L33.0735 26.9456C32.7579 27.8048 32.1619 28.2173 31.2503 28.2173H27.4636C26.2364 28.2173 25.7806 27.5299 26.1663 26.43L34.1955 4.02053C34.511 3.19565 35.1071 2.7832 35.9836 2.7832H39.9807ZM40.4014 18.1811L37.9822 11.1352L35.7733 18.1811H40.4014Z" fill="url(#paint1_linear_17_426)"/>
<path d="M73.6128 26.6706C73.6128 27.7017 73.0869 28.2173 72.035 28.2173H68.5639C67.512 28.2173 66.9861 27.7017 66.9861 26.6706V18.7654H59.7984V26.6706C59.7984 27.7017 59.2724 28.2173 58.2206 28.2173H54.7495C53.6976 28.2173 53.1717 27.7017 53.1717 26.6706V4.32987C53.1717 3.29876 53.6976 2.7832 54.7495 2.7832H58.2206C59.2724 2.7832 59.7984 3.29876 59.7984 4.32987V12.2351H66.9861V4.32987C66.9861 3.29876 67.512 2.7832 68.5639 2.7832H72.035C73.0869 2.7832 73.6128 3.29876 73.6128 4.32987V26.6706Z" fill="url(#paint2_linear_17_426)"/>
<path d="M90.248 2.7832C91.1246 2.7832 91.7557 3.19565 92.0713 4.02053L100.065 26.43C100.451 27.5299 99.9953 28.2173 98.7681 28.2173H95.0165C94.1049 28.2173 93.5088 27.8048 93.2283 26.9456L92.1414 23.8179H84.4278L83.3408 26.9456C83.0253 27.8048 82.4292 28.2173 81.5176 28.2173H77.7309C76.5038 28.2173 76.0479 27.5299 76.4336 26.43L84.4628 4.02053C84.7784 3.19565 85.3744 2.7832 86.251 2.7832H90.248ZM90.6688 18.1811L88.2495 11.1352L86.0406 18.1811H90.6688Z" fill="url(#paint3_linear_17_426)"/>
</g>
<defs>
<filter id="filter0_dii_17_426" x="0" y="0.783203" width="104.199" height="33.4341" filterUnits="userSpaceOnUse" color-interpolation-filters="sRGB">
<feFlood flood-opacity="0" result="BackgroundImageFix"/>
<feColorMatrix in="SourceAlpha" type="matrix" values="0 0 0 0 0 0 0 0 0 0 0 0 0 0 0 0 0 0 127 0" result="hardAlpha"/>
<feOffset dy="2"/>
<feGaussianBlur stdDeviation="2"/>
<feComposite in2="hardAlpha" operator="out"/>
<feColorMatrix type="matrix" values="0 0 0 0 0.0980392 0 0 0 0 0.105229 0 0 0 0 0.529412 0 0 0 0.53 0"/>
<feBlend mode="multiply" in2="BackgroundImageFix" result="effect1_dropShadow_17_426"/>
<feBlend mode="normal" in="SourceGraphic" in2="effect1_dropShadow_17_426" result="shape"/>
<feColorMatrix in="SourceAlpha" type="matrix" values="0 0 0 0 0 0 0 0 0 0 0 0 0 0 0 0 0 0 127 0" result="hardAlpha"/>
<feOffset dx="1" dy="1"/>
<feGaussianBlur stdDeviation="2"/>
<feComposite in2="hardAlpha" operator="arithmetic" k2="-1" k3="1"/>
<feColorMatrix type="matrix" values="0 0 0 0 0.854167 0 0 0 0 1 0 0 0 0 0.831731 0 0 0 0.25 0"/>
<feBlend mode="plus-lighter" in2="shape" result="effect2_innerShadow_17_426"/>
<feColorMatrix in="SourceAlpha" type="matrix" values="0 0 0 0 0 0 0 0 0 0 0 0 0 0 0 0 0 0 127 0" result="hardAlpha"/>
<feOffset dx="-1" dy="-2"/>
<feGaussianBlur stdDeviation="1.55"/>
<feComposite in2="hardAlpha" operator="arithmetic" k2="-1" k3="1"/>
<feColorMatrix type="matrix" values="0 0 0 0 0.0980392 0 0 0 0 0.105229 0 0 0 0 0.529412 0 0 0 0.18 0"/>
<feBlend mode="multiply" in2="effect2_innerShadow_17_426" result="effect3_innerShadow_17_426"/>
</filter>
<linearGradient id="paint0_linear_17_426" x1="25.0356" y1="-13.8649" x2="25.0356" y2="45.7462" gradientUnits="userSpaceOnUse">
<stop stop-color="#6EE3DB"/>
<stop offset="0.485577" stop-color="#96FFD5"/>
<stop offset="1" stop-color="#AFF9B3"/>
</linearGradient>
<linearGradient id="paint1_linear_17_426" x1="25.0356" y1="-13.8649" x2="25.0356" y2="45.7462" gradientUnits="userSpaceOnUse">
<stop stop-color="#6EE3DB"/>
<stop offset="0.485577" stop-color="#96FFD5"/>
<stop offset="1" stop-color="#AFF9B3"/>
</linearGradient>
<linearGradient id="paint2_linear_17_426" x1="25.0356" y1="-13.8649" x2="25.0356" y2="45.7462" gradientUnits="userSpaceOnUse">
<stop stop-color="#6EE3DB"/>
<stop offset="0.485577" stop-color="#96FFD5"/>
<stop offset="1" stop-color="#AFF9B3"/>
</linearGradient>
<linearGradient id="paint3_linear_17_426" x1="25.0356" y1="-13.8649" x2="25.0356" y2="45.7462" gradientUnits="userSpaceOnUse">
<stop stop-color="#6EE3DB"/>
<stop offset="0.485577" stop-color="#96FFD5"/>
<stop offset="1" stop-color="#AFF9B3"/>
</linearGradient>
</defs>
</svg>
