<svg width="1656" height="1072" viewBox="0 0 1656 1072" fill="none" xmlns="http://www.w3.org/2000/svg">
<path d="M0.270264 1001.62C60.7703 803.291 287.37 438.424 835.77 553.624C1521.27 697.624 1223.27 39.624 1503.27 0.624023L1655.77 112.124C1590.6 79.124 1510.77 105.725 1412.77 410.624C1327.27 676.624 898.77 579.624 825.77 563.624C748.693 546.73 259.27 468.624 144.27 1071.62H0.270264V1001.62Z" fill="url(#paint0_radial_17_387)"/>
<path d="M0.270264 1001.62C60.7703 803.291 287.37 438.424 835.77 553.624C1521.27 697.624 1223.27 39.624 1503.27 0.624023L1655.77 112.124C1590.6 79.124 1510.77 105.725 1412.77 410.624C1327.27 676.624 898.77 579.624 825.77 563.624C748.693 546.73 259.27 468.624 144.27 1071.62H0.270264V1001.62Z" fill="url(#paint1_radial_17_387)"/>
<defs>
<radialGradient id="paint0_radial_17_387" cx="0" cy="0" r="1" gradientUnits="userSpaceOnUse" gradientTransform="translate(827.77 576.124) rotate(90) scale(1115.5 1724.29)">
<stop offset="0.0432692" stop-color="#6EE3BA"/>
<stop offset="0.514423" stop-color="#2A7CA6"/>
<stop offset="1" stop-color="#000069"/>
</radialGradient>
<radialGradient id="paint1_radial_17_387" cx="0" cy="0" r="1" gradientUnits="userSpaceOnUse" gradientTransform="translate(827.77 576.124) rotate(90) scale(1115.5 1724.29)">
<stop offset="0.0432692" stop-color="#6EE3BA"/>
<stop offset="0.514423" stop-color="#2A7CA6"/>
<stop offset="1" stop-color="#000069"/>
</radialGradient>
</defs>
</svg>
